<?xml version="1.0" encoding="UTF-8" standalone="no"?><!DOCTYPE svg PUBLIC "-//W3C//DTD SVG 1.1//EN" "http://www.w3.org/Graphics/SVG/1.1/DTD/svg11.dtd"><svg width="32px" height="32px" version="1.1" xmlns="http://www.w3.org/2000/svg" xmlns:xlink="http://www.w3.org/1999/xlink" xml:space="preserve" xmlns:serif="http://www.serif.com/" style="fill-rule:evenodd;clip-rule:evenodd;stroke-linejoin:round;stroke-miterlimit:2;"><rect id="d30" x="0" y="0" width="32" height="32" style="fill:none;"/><path d="M13.209,2.754c1.747,-0.917 3.833,-0.917 5.58,0c2.308,1.212 5.587,2.935 8.004,4.204c1.974,1.037 3.21,3.083 3.21,5.312c-0,2.272 -0,5.188 -0,7.46c-0,2.229 -1.236,4.275 -3.21,5.312c-2.417,1.269 -5.696,2.992 -8.004,4.204c-1.747,0.917 -3.833,0.917 -5.58,-0c-2.308,-1.212 -5.587,-2.935 -8.004,-4.204c-1.974,-1.037 -3.21,-3.083 -3.21,-5.312c0,-2.272 0,-5.188 0,-7.46c0,-2.229 1.236,-4.275 3.21,-5.312c2.417,-1.269 5.696,-2.992 8.004,-4.204Z" style="fill:#4d4d4d;"/><path d="M13.209,2.754c1.747,-0.917 3.833,-0.917 5.58,0l8.004,4.204c1.974,1.037 3.21,3.083 3.21,5.312l-0,7.46c-0,2.229 -1.236,4.275 -3.21,5.312l-8.004,4.204c-1.747,0.917 -3.833,0.917 -5.58,-0l-8.004,-4.204c-1.974,-1.037 -3.21,-3.083 -3.21,-5.312l0,-7.46c0,-2.229 1.236,-4.275 3.21,-5.312l8.004,-4.204Zm0.93,1.771l-8.004,4.204c-1.316,0.691 -2.14,2.055 -2.14,3.541l0,7.46c0,1.486 0.824,2.85 2.14,3.541l8.004,4.204c1.164,0.612 2.555,0.612 3.72,0l8.004,-4.204c1.316,-0.691 2.14,-2.055 2.14,-3.541l-0,-7.46c-0,-1.486 -0.824,-2.85 -2.14,-3.541l-8.004,-4.204c-1.165,-0.612 -2.556,-0.612 -3.72,-0Z" style="fill:#4d4d4d;"/><path d="M3.578,16c-0,-1.577 2.98,-9.351 4.422,-10.094c1.758,-0.905 5.036,-3.698 8,-3.698c2.964,0 6.101,2.62 8,3.623c1.435,0.758 4.512,8.59 4.512,10.169c-0,1.579 -3.077,9.411 -4.512,10.169c-1.899,1.003 -5.036,3.623 -8,3.623c-2.964,-0 -6.242,-2.793 -8,-3.698c-1.442,-0.743 -4.422,-8.517 -4.422,-10.094Z" style="fill:#666;"/><path d="M3.578,16c-0,-1.577 2.98,-9.351 4.422,-10.094c1.758,-0.905 5.036,-3.698 8,-3.698c2.964,0 6.101,2.62 8,3.623c1.435,0.758 4.512,8.59 4.512,10.169c-0,1.579 -3.077,9.411 -4.512,10.169c-1.899,1.003 -5.036,3.623 -8,3.623c-2.964,-0 -6.242,-2.793 -8,-3.698c-1.442,-0.743 -4.422,-8.517 -4.422,-10.094Zm5.502,8.403c0.888,0.487 2.11,1.365 3.465,2.146c1.101,0.633 2.298,1.243 3.455,1.243c1.159,-0 2.333,-0.57 3.422,-1.18c1.334,-0.748 2.548,-1.608 3.489,-2.128c0.117,-0.167 0.615,-0.886 0.925,-1.477c1.24,-2.363 2.676,-6.026 2.676,-7.007c-0,-0.981 -1.436,-4.644 -2.676,-7.007c-0.31,-0.591 -0.808,-1.31 -0.925,-1.477c-0.941,-0.52 -2.155,-1.38 -3.489,-2.128c-1.089,-0.61 -2.263,-1.18 -3.422,-1.18c-1.157,0 -2.354,0.61 -3.455,1.243c-1.355,0.781 -2.577,1.659 -3.465,2.146c-0.118,0.169 -0.598,0.866 -0.896,1.441c-1.217,2.342 -2.606,5.983 -2.606,6.962c-0,0.979 1.389,4.62 2.606,6.962c0.298,0.575 0.778,1.272 0.896,1.441Z" style="fill:#666;"/><path d="M4.508,18.435c-0.611,-0.554 -0.975,-1.461 -0.975,-2.429c-0,-0.967 0.363,-1.874 0.974,-2.429c2.602,-2.363 6.521,-5.345 9.043,-7.477c1.472,-1.244 3.429,-1.244 4.9,-0.001c2.523,2.131 6.441,5.111 9.043,7.472c0.61,0.554 0.974,1.461 0.974,2.429c-0,0.968 -0.364,1.875 -0.974,2.429c-2.603,2.362 -6.522,5.342 -9.044,7.473c-1.471,1.242 -3.427,1.243 -4.898,0c-2.522,-2.129 -6.441,-5.107 -9.043,-7.467Z" style="fill:#bfbfbf;"/><path d="M4.508,18.435c-0.611,-0.554 -0.975,-1.461 -0.975,-2.429c-0,-0.967 0.363,-1.874 0.974,-2.429c2.602,-2.363 6.521,-5.345 9.043,-7.477c1.472,-1.244 3.429,-1.244 4.9,-0.001c2.523,2.131 6.441,5.111 9.043,7.472c0.61,0.554 0.974,1.461 0.974,2.429c-0,0.968 -0.364,1.875 -0.974,2.429c-2.603,2.362 -6.522,5.342 -9.044,7.473c-1.471,1.242 -3.427,1.243 -4.898,0c-2.522,-2.129 -6.441,-5.107 -9.043,-7.467Zm1.344,-1.481c2.586,2.346 6.482,5.304 8.989,7.42c0.696,0.588 1.621,0.588 2.317,-0c2.507,-2.118 6.404,-5.079 8.991,-7.426c0.233,-0.212 0.318,-0.578 0.318,-0.948c-0,-0.37 -0.085,-0.736 -0.319,-0.948c-2.586,-2.347 -6.481,-5.307 -8.988,-7.425c-0.697,-0.588 -1.623,-0.588 -2.319,0.001c-2.507,2.119 -6.403,5.081 -8.99,7.43c-0.233,0.212 -0.318,0.578 -0.318,0.948c0,0.37 0.085,0.736 0.319,0.948Z" style="fill:#808080;"/></svg>