<?xml version="1.0" encoding="UTF-8" standalone="no"?>
<!DOCTYPE svg PUBLIC "-//W3C//DTD SVG 1.1//EN" "http://www.w3.org/Graphics/SVG/1.1/DTD/svg11.dtd">
<svg width="100%" height="100%" viewBox="0 0 1792 1792" version="1.1" xmlns="http://www.w3.org/2000/svg" xmlns:xlink="http://www.w3.org/1999/xlink" xml:space="preserve" xmlns:serif="http://www.serif.com/" style="fill-rule:evenodd;clip-rule:evenodd;stroke-linejoin:round;stroke-miterlimit:2;">
    <path d="M1417,1632L299,1632L299,1152L139,1152L139,1792L1577,1792L1577,1152L1417,1152L1417,1632ZM475,1108L508,951L1291,1116L1258,1272L475,1108ZM578,734L645,588L1370,927L1303,1072L578,734ZM779,378L881,255L1495,768L1393,891L779,378ZM1176,0L1653,641L1525,737L1048,96L1176,0ZM458,1471L458,1312L1258,1312L1258,1471L458,1471Z" style="fill:white;fill-rule:nonzero;"/>
</svg>
