<?xml version="1.0" encoding="UTF-8" standalone="no"?><!DOCTYPE svg PUBLIC "-//W3C//DTD SVG 1.1//EN" "http://www.w3.org/Graphics/SVG/1.1/DTD/svg11.dtd"><svg width="32px" height="32px" version="1.1" xmlns="http://www.w3.org/2000/svg" xmlns:xlink="http://www.w3.org/1999/xlink" xml:space="preserve" xmlns:serif="http://www.serif.com/" style="fill-rule:evenodd;clip-rule:evenodd;stroke-linejoin:round;stroke-miterlimit:2;"><rect id="roll-5" x="0" y="0" width="32" height="32" style="fill:none;"/><path d="M3.623,10.827c0.575,-4.025 3.777,-7.165 7.813,-7.661c2.496,-0.307 5.394,-0.662 8.191,-1.006c2.781,-0.341 5.562,0.631 7.523,2.632c1.962,2 2.88,4.799 2.484,7.573c-0.429,3.004 -0.876,6.14 -1.257,8.808c-0.575,4.025 -3.777,7.165 -7.813,7.661c-2.496,0.307 -5.394,0.662 -8.191,1.006c-2.781,0.341 -5.562,-0.631 -7.523,-2.632c-1.962,-2 -2.88,-4.799 -2.484,-7.573c0.429,-3.004 0.876,-6.14 1.257,-8.808Z" style="fill:#999;"/><path d="M3.623,10.827c0.575,-4.025 3.777,-7.165 7.813,-7.661l8.191,-1.006c2.781,-0.341 5.562,0.631 7.523,2.632c1.962,2 2.88,4.799 2.484,7.573l-1.257,8.808c-0.575,4.025 -3.777,7.165 -7.813,7.661l-8.191,1.006c-2.781,0.341 -5.562,-0.631 -7.523,-2.632c-1.962,-2 -2.88,-4.799 -2.484,-7.573l1.257,-8.808Zm1.98,0.283l-1.257,8.808c-0.308,2.157 0.406,4.334 1.932,5.89c1.525,1.556 3.688,2.312 5.851,2.047l8.191,-1.006c3.139,-0.385 5.63,-2.828 6.077,-5.959l1.257,-8.808c0.308,-2.157 -0.406,-4.334 -1.932,-5.89c-1.525,-1.556 -3.688,-2.312 -5.851,-2.047l-8.191,1.006c-3.139,0.385 -5.63,2.828 -6.077,5.959Z" style="fill:#808080;"/><path d="M2.386,8.845c3.244,12.758 6.487,13.012 9.218,12.422c-3.173,0.409 -6.323,-3.549 -8.886,-15.139l-0.332,2.717Z"/><path d="M18.855,2.211c-8.093,-0.149 -12.79,7.896 -8.946,13.258c-3.261,-6.486 2.821,-11.358 8.162,-12.08l0.784,-1.178Z" style="fill:#fff;"/><path d="M27.604,2.868c-11.909,5.034 -16.923,9.232 -16.339,11.949c0.345,-3.077 6.514,-7.195 16.797,-10.281l-0.458,-1.668Z"/><path d="M28.79,27.273c-2.173,-9.793 -4.774,-16.776 -9.992,-17.3c4.707,0.151 8.045,4.918 10.374,15.415l-0.382,1.885Z" style="fill:#fff;"/><path d="M3.604,28.251c9.201,-2.234 17.144,-4.984 15.648,-11.941c0.46,6.628 -6.591,8.979 -15.3,10.449l-0.348,1.492Z" style="fill:#fff;"/><path d="M22.594,29.822c0.466,-9.328 1.195,-13.308 -2.049,-15.849c2.524,3.078 1.56,6.745 0.692,15.053l1.357,0.796Z"/></svg>